
            <svg width="3840" height="2160" viewBox="0 0 3840 2160" xmlns="http://www.w3.org/2000/svg">
              <style>
                .triangle--dark { fill: #1a1a1a; }
                .triangle--light {
                  fill: #f8f8f2;
                  opacity: 0.5;
                }
              </style>
              <defs>
                <filter id="texture" filterUnits="objectBoundingBox" x="0" y="0" width="100%" height="100%">
                  <feTurbulence type="fractalNoise" baseFrequency="0.4" numOctaves="3" result="turbulence" />
                  <feColorMatrix type="saturate" values="0.1" in="turbulence" result="desaturatedTurbulence" />
                  <feBlend in="SourceGraphic" in2="desaturatedTurbulence" mode="multiply" result="multiplied" />
                  <feBlend in="multiplied" in2="desaturatedTurbulence" mode="screen" />
                </filter>
                <pattern id="triangles" width="24" height="48" patternUnits="userSpaceOnUse">
                  <path class="triangle--dark" d="M0,0 L24,0 L12,24 Z" />
                  <path class="triangle--dark" d="M0,24 L12,24 L0,48 Z" />
                  <path class="triangle--dark" d="M12,24 L24,24 L 24,48 Z" />
                  <path class="triangle--light" d="M0,0 L12,24 L0,24 Z" />
                  <path class="triangle--light" d="M24,0 L24,24 L12,24 Z" />
                  <path class="triangle--light" d="M12,24 L24,48 L0,48 Z" />
                </pattern>
                <linearGradient id="warm-linear" x1="0" y1="50%" x2="100%" y2="100%">
                  <stop stop-color="#6e45a6" offset="0%" />
                  <stop stop-color="#fff43a" offset="100%" />
                </linearGradient>
                <linearGradient id="cool-linear" x1="100%" y1="0" x2="0" y2="100%">
                  <stop stop-color="#15cc66" offset="0%" />
                  <stop stop-color="#15cc66" stop-opacity="0" offset="45%" />
                </linearGradient>
                <linearGradient id="accent-linear" x1="0" y1="100%" x2="100%" y2="0">
                  <stop stop-color="#ff4444" offset="0%" />
                  <stop stop-color="#ff4444" stop-opacity="0" offset="25%" />
                </linearGradient>
              </defs>
              <rect x="0" y="0" width="100%" height="100%" fill="url(#warm-linear)" />
              <rect x="0" y="0" width="100%" height="100%" fill="url(#cool-linear)" />
              <rect x="0" y="0" width="100%" height="100%" fill="url(#accent-linear)" />
              <rect x="0" y="0" width="100%" height="100%" fill="url(#triangles)" filter="url(#texture)" opacity="0.3" />
            </svg>